<svg width="3841" height="1286" viewBox="0 0 3841 1286" fill="none" xmlns="http://www.w3.org/2000/svg">
<path fill-rule="evenodd" clip-rule="evenodd" d="M1527.54 579.881C1529.92 577.238 1532.37 574.666 1534.9 572.169C1531.09 570.728 1527.35 569.16 1523.67 567.469C1525.1 571.541 1526.4 575.68 1527.54 579.881ZM1735.1 859.845C1733.52 860.587 1731.92 861.307 1730.31 862.003C1732.29 862.653 1734.25 863.333 1736.21 864.043C1735.82 862.649 1735.46 861.25 1735.1 859.845ZM1355.96 448.885C1362.55 448.885 1369.05 449.243 1375.45 449.941C1375.32 437.071 1380.68 424.237 1391.24 415.227C1399.6 408.091 1409.81 404.548 1420.01 404.449C1420.49 339.061 1456.28 282.071 1509.25 251.588C1507.8 242.446 1507.05 233.073 1507.05 223.524C1507.05 125.323 1586.66 45.7153 1684.86 45.7153C1719.85 45.7153 1752.48 55.8231 1779.99 73.2782C1812.32 28.9197 1864.68 0.0927734 1923.78 0.0927734C2021.98 0.0927734 2101.58 79.7005 2101.58 177.902C2101.58 181.906 2101.45 185.88 2101.19 189.818C2151.81 218.29 2187.08 270.824 2191.49 331.909C2198.19 339.77 2202.24 349.965 2202.24 361.106C2202.24 369.816 2199.76 377.949 2195.48 384.839C2256.94 393.727 2308.23 434.05 2332.51 488.98C2352.45 481.244 2374.14 477 2396.81 477C2457.27 477 2510.67 507.172 2542.8 553.28C2557.77 549.186 2573.54 547 2589.81 547C2638.23 547 2682.13 566.355 2714.2 597.752C2729.8 570.987 2758.81 553 2792.03 553C2834.81 553 2870.62 582.841 2879.79 622.845C2897.08 618.38 2915.25 616 2934 616C2964.19 616 2992.89 622.171 3018.8 633.277C3039.15 577.68 3092.53 538 3155.17 538C3235.35 538 3300.35 602.996 3300.35 683.173C3300.35 684.836 3300.32 686.493 3300.26 688.142C3319.27 682.201 3339.48 679 3360.44 679C3428.79 679 3489.19 713.038 3525.61 765.087C3530.6 764.371 3535.71 764 3540.91 764C3592.75 764 3635.97 800.898 3645.75 849.865C3666.05 863.697 3683.68 881.142 3697.74 901.275C3709.03 897.213 3721.21 895 3733.91 895C3792.95 895 3840.82 942.865 3840.82 1001.91C3840.82 1060.96 3792.95 1108.82 3733.91 1108.82C3726.61 1108.82 3719.47 1108.09 3712.58 1106.69C3679.48 1172.63 3611.25 1217.88 3532.44 1217.88C3466.81 1217.88 3408.52 1186.5 3371.74 1137.92C3356.66 1166.55 3326.63 1186.06 3292.03 1186.06C3257.76 1186.06 3227.97 1166.91 3212.75 1138.74C3177.91 1167.56 3133.2 1184.88 3084.44 1184.88C3001.65 1184.88 2930.52 1134.93 2899.55 1063.53C2867.69 1132.79 2797.68 1180.88 2716.44 1180.88C2660.1 1180.88 2609.15 1157.75 2572.59 1120.46C2535.66 1162.99 2481.19 1189.88 2420.44 1189.88C2337.94 1189.88 2267.03 1140.29 2235.88 1069.29C2212.66 1154.91 2134.41 1217.88 2041.44 1217.88C1962.88 1217.88 1894.82 1172.91 1861.6 1107.3C1838.05 1192.4 1760.04 1254.88 1667.44 1254.88C1563.57 1254.88 1478.07 1176.27 1467.17 1075.3C1466.03 1075 1464.88 1074.69 1463.75 1074.37C1430.71 1140.48 1362.38 1185.88 1283.44 1185.88C1224.4 1185.88 1171.29 1160.48 1134.44 1120.01C1097.6 1160.48 1044.49 1185.88 985.441 1185.88C950.982 1185.88 918.544 1177.23 890.18 1161.98C871.047 1216.22 819.336 1255.09 758.546 1255.09C692.119 1255.09 636.532 1208.68 622.448 1146.51C590.484 1227.41 511.587 1284.64 419.322 1284.64C361.724 1284.64 309.335 1262.34 270.322 1225.9C260.323 1260.2 228.272 1285.3 190.278 1285.3C144.285 1285.3 107 1248.52 107 1203.15C107 1192.14 109.195 1181.64 113.178 1172.04C47.2798 1149.2 0 1086.93 0 1013.68C0 921.073 75.5771 846 168.806 846C190.803 846 211.817 850.179 231.087 857.782C231.056 857.047 231.033 856.311 231.019 855.572C231.006 854.935 231 854.296 231 853.656C231 800.827 273.827 758 326.656 758C375.344 758 415.536 794.375 421.539 841.431C436.533 831.671 454.432 826 473.656 826C506.835 826 536.069 842.892 553.226 868.545C588.355 809.536 652.781 770 726.442 770C747.165 770 767.157 773.129 785.972 778.941C801.781 734.312 839.653 700.118 886.476 689.471C892.221 621.431 949.268 568 1018.79 568C1033.46 568 1047.57 570.377 1060.76 574.768C1080.54 521.754 1131.64 484 1191.55 484C1208.36 484 1224.47 486.972 1239.39 492.419C1270.61 465.301 1311.37 448.885 1355.96 448.885ZM1228.55 758.133C1229.94 760.962 1231.26 763.836 1232.49 766.752C1232.78 763.334 1233.19 759.951 1233.71 756.608C1232.01 757.148 1230.29 757.657 1228.55 758.133ZM725.03 733.059C675.308 733.059 635 692.752 635 643.03C635 593.308 675.308 553 725.03 553C774.752 553 815.06 593.308 815.06 643.03C815.06 692.752 774.752 733.059 725.03 733.059ZM3679 811.015C3679 835.876 3699.15 856.03 3724.01 856.03C3748.88 856.03 3769.03 835.876 3769.03 811.015C3769.03 786.154 3748.88 766 3724.01 766C3699.15 766 3679 786.154 3679 811.015ZM2264.01 366.03C2239.15 366.03 2219 345.876 2219 321.015C2219 296.154 2239.15 276 2264.01 276C2288.88 276 2309.03 296.154 2309.03 321.015C2309.03 345.876 2288.88 366.03 2264.01 366.03ZM1261.23 397.69C1277.37 416.598 1305.78 418.841 1324.69 402.7C1343.6 386.558 1345.84 358.145 1329.7 339.236C1313.56 320.328 1285.14 318.085 1266.24 334.227C1247.33 350.368 1245.09 378.782 1261.23 397.69ZM2386.01 422.03C2361.15 422.03 2341 401.876 2341 377.015C2341 352.154 2361.15 332 2386.01 332C2410.88 332 2431.03 352.154 2431.03 377.015C2431.03 401.876 2410.88 422.03 2386.01 422.03Z" fill="white"/>
</svg>
