<svg width="815" height="1820" viewBox="0 0 815 1820" fill="none" xmlns="http://www.w3.org/2000/svg">
<path d="M580.067 530.275H541.465V586.089H580.067V530.275Z" fill="black"/>
<path d="M228.663 586.303L267.352 586.27L267.303 530.456L228.615 530.489L228.663 586.303Z" fill="black"/>
<path d="M239.009 1613.45H67.4043V1659.28H239.009V1613.45Z" fill="#6990C9"/>
<path d="M36.797 1577.32C36.8425 1589.98 41.8988 1602.09 50.8584 1611.02C59.8181 1619.95 71.9506 1624.97 84.5986 1624.97H263.855C270.109 1624.96 276.301 1623.71 282.075 1621.31C287.85 1618.9 293.094 1615.39 297.509 1610.95C301.924 1606.52 305.422 1601.26 307.806 1595.48C310.189 1589.69 311.41 1583.5 311.398 1577.24C311.41 1570.98 310.185 1564.78 307.796 1558.99C305.406 1553.21 301.898 1547.95 297.473 1543.52C293.048 1539.1 287.793 1535.59 282.009 1533.2C276.225 1530.81 270.027 1529.58 263.769 1529.59H84.1687C71.5059 1529.62 59.3694 1534.67 50.4235 1543.63C41.4775 1552.59 36.4531 1564.74 36.4531 1577.41L36.797 1577.32Z" fill="#FEBA72"/>
<path d="M743.591 1613.01H571.986V1658.85H743.591V1613.01Z" fill="#6990C9"/>
<path d="M774.025 1576.64C774.025 1589.29 769.013 1601.43 760.085 1610.39C751.158 1619.35 739.043 1624.41 726.395 1624.45H547.139C540.877 1624.46 534.675 1623.24 528.886 1620.85C523.097 1618.46 517.837 1614.95 513.405 1610.53C508.973 1606.1 505.457 1600.85 503.058 1595.06C500.659 1589.28 499.424 1583.07 499.424 1576.81C499.424 1564.17 504.439 1552.04 513.369 1543.09C522.299 1534.14 534.413 1529.1 547.053 1529.08H726.309C738.95 1529.08 751.073 1534.1 760.019 1543.03C768.965 1551.96 774.002 1564.08 774.025 1576.72V1576.64Z" fill="#FE8730"/>
<path d="M384.391 1672.35H277.783V1700.82H384.391V1672.35Z" fill="#4B72AD"/>
<path d="M400.295 1649.82C400.25 1656.12 397.724 1662.14 393.265 1666.59C388.806 1671.03 382.775 1673.54 376.48 1673.56H285.864C282.707 1673.57 279.578 1672.96 276.658 1671.76C273.738 1670.56 271.083 1668.79 268.847 1666.56C266.61 1664.33 264.836 1661.68 263.625 1658.77C262.414 1655.85 261.791 1652.72 261.791 1649.56C261.791 1643.18 264.327 1637.05 268.842 1632.54C273.356 1628.02 279.479 1625.48 285.864 1625.48H376.48C379.645 1625.47 382.78 1626.09 385.706 1627.29C388.632 1628.5 391.29 1630.27 393.528 1632.51C395.765 1634.75 397.538 1637.41 398.744 1640.34C399.95 1643.26 400.565 1646.4 400.553 1649.56L400.295 1649.82Z" fill="#FEBA72"/>
<path d="M539.143 1672.01H432.535V1700.48H539.143V1672.01Z" fill="#6990C9"/>
<path d="M555.135 1649.39C555.158 1655.76 552.655 1661.89 548.176 1666.41C543.696 1670.94 537.604 1673.51 531.234 1673.56H440.618C434.24 1673.54 428.13 1670.99 423.621 1666.48C419.111 1661.97 416.568 1655.86 416.545 1649.48C416.545 1643.08 419.078 1636.95 423.59 1632.42C428.102 1627.89 434.225 1625.34 440.618 1625.31H531.234C534.392 1625.3 537.52 1625.91 540.44 1627.11C543.36 1628.32 546.015 1630.08 548.251 1632.31C550.488 1634.54 552.262 1637.19 553.473 1640.1C554.684 1643.02 555.307 1646.15 555.307 1649.31L555.135 1649.39Z" fill="#FE8730"/>
<path d="M549.289 668.821H259.557V673.379H549.289V668.821Z" fill="black"/>
<path d="M406.142 1.72001V0L405.282 0.860003C405.012 0.608423 404.78 0.318685 404.594 0V1.72001C301.517 122.425 249.902 278.768 260.846 437.138L261.877 1609.4H405.884H407.517H551.524L550.578 437.224C561.327 278.734 509.463 122.355 406.142 1.72001Z" fill="#F46606"/>
<path d="M482.314 113.95L483.604 1609.23H551.524L550.578 437.052C558.377 325.092 534.733 213.18 482.314 113.95Z" fill="#F46606"/>
<path d="M403.735 419.25V2.92383C305.356 118.849 254.03 267.473 259.901 419.422L403.735 419.25Z" fill="#FFAE39"/>
<path d="M404.25 456.144H261.361V1609.32H404.25V456.144Z" fill="#FFAE39"/>
<path d="M550.663 1114.56L550.233 657.47L423.078 530.362L422.046 531.394C423.461 533.615 424.04 536.267 423.679 538.876C417.231 619.544 421.874 702.276 421.444 782.944C421.444 825.944 421.444 868.17 421.444 910.826C421.444 935.422 423.164 960.878 422.218 985.818L550.663 1114.56Z" fill="#C65305"/>
<path d="M706.621 1480.66H631.049L630.018 253.786C637.755 255.85 651.511 265.654 667.158 305.386C691.145 365.586 711.779 435.676 715.304 492.263C730.693 748.543 716.078 1478.42 716.078 1478.42L706.621 1480.66Z" fill="#BECDD3"/>
<path d="M555.651 1480.75L546.193 1478.25C546.193 1478.25 530.374 748.371 545.42 492.092C548.773 435.504 569.149 365.758 593.135 305.128C608.697 265.74 622.453 255.85 630.19 253.528L631.222 1480.4L555.651 1480.75Z" fill="#D7DDE0"/>
<path d="M630.793 1105.19V1081.36H721.754C721.754 1089.28 721.754 1097.19 721.754 1105.19H630.793Z" fill="#2C2F30"/>
<path d="M539.832 1105.27C539.832 1097.27 539.832 1089.28 539.832 1081.45H630.793V1105.27H539.832Z" fill="#5D5D5D"/>
<path d="M630.533 829.125V804.959H722.268C722.268 812.785 722.268 820.783 722.268 828.781L630.533 829.125Z" fill="#2C2F30"/>
<path d="M538.713 829.212C538.713 821.214 538.713 813.216 538.713 805.304H630.447V829.126L538.713 829.212Z" fill="#5D5D5D"/>
<path d="M630.275 543.95V521.16H717.453C717.969 529.072 718.313 536.812 718.313 544.552L630.275 543.95Z" fill="#2C2F30"/>
<path d="M542.324 544.035C542.324 536.295 542.324 528.469 542.324 520.815H630.104V543.863L542.324 544.035Z" fill="#5D5D5D"/>
<path d="M258.611 1481H183.04L182.008 254.56C189.831 256.624 203.587 266.428 219.149 306.16C243.135 366.36 263.769 436.449 267.208 492.951C282.598 749.231 268.068 1479.2 268.068 1479.2L258.611 1481Z" fill="#BECDD3"/>
<path d="M107.554 1481.09L98.0967 1478.68C98.0967 1478.68 82.3635 748.716 97.323 492.436C100.676 435.848 121.224 366.102 145.125 305.472C160.686 266.084 174.356 256.28 182.093 253.872L183.125 1480.75L107.554 1481.09Z" fill="#D7DDE0"/>
<path d="M182.781 1105.96V1082.14H273.312C273.312 1090.05 273.312 1097.96 273.312 1105.96H182.781Z" fill="#2C2F30"/>
<path d="M91.8203 1105.96C91.8203 1097.96 91.8203 1090.05 91.8203 1082.14H182.781V1105.96H91.8203Z" fill="#5D5D5D"/>
<path d="M182.523 829.469V805.647H274.258C274.258 813.559 274.258 821.557 274.258 829.469H182.523Z" fill="#2C2F30"/>
<path d="M90.7891 829.555V805.733H182.609V829.555H90.7891Z" fill="#5D5D5D"/>
<path d="M182.266 544.38V521.16H269.357C270.045 529.072 270.303 536.898 270.303 544.638L182.266 544.38Z" fill="#2C2F30"/>
<path d="M94.4004 544.38C94.4004 536.64 94.4004 528.9 94.4004 521.246H182.352V544.38H94.4004Z" fill="#5D5D5D"/>
<path d="M814.175 1516.78C814.175 1516.78 810.478 1495.54 802.052 1462.86C796.617 1442.76 785.228 1424.77 769.382 1411.26C769.382 1411.26 638.014 1274.18 608.611 1249.15C579.208 1224.12 563.732 1167.97 563.732 1167.97L500.627 812.184H312.774L250.013 1168.05C250.013 1168.05 234.967 1224.21 205.392 1249.32C175.817 1274.43 44.7065 1411.78 44.7065 1411.78C28.9294 1425.33 17.5789 1443.3 12.1223 1463.38C3.52494 1496.06 0 1517.3 0 1517.3V1537.77H8.59741L0 1558.23V1577.24L406.915 1628.84H407.431L814.175 1577.24V1558.23L805.577 1537.77H814.175V1516.78Z" fill="#45494D"/>
<path d="M7.99559 1515.75L407.431 1515.41L407.517 1628.67L0.0859925 1577.41V1558.41L8.42546 1537.94H0.0859925L0 1517.47L7.99559 1515.75Z" fill="#AFB8C0"/>
<path d="M309.506 930.004L267.207 1193.25C267.207 1193.25 248.636 1241.84 235.654 1254.74C222.672 1267.64 34.1311 1455.98 34.1311 1455.98L15.2168 1516.18H348.968L335.814 880.64L309.506 930.004Z" fill="#CBD2D7"/>
<path d="M806.266 1515.06L406.83 1515.4L407.002 1628.67L814.261 1576.72V1557.72L805.836 1537.25H814.175V1516.78L806.266 1515.06Z" fill="#535A61"/>
<path d="M503.723 929.831L546.71 1193.08C546.71 1193.08 565.453 1241.58 578.349 1254.48L780.56 1455.29L799.474 1515.06H465.809L477.931 880.295L503.723 929.831Z" fill="#6C757D"/>
<path d="M602.764 1278.99L578.175 1254.48C565.279 1241.58 546.537 1193.08 546.537 1193.08L503.549 929.831L477.757 880.553L465.377 1515.32H602.936L602.764 1278.99Z" fill="#535A61"/>
<path d="M503.981 1451.77C503.981 1451.77 503.981 884.165 503.465 819.751C501.562 773.695 494.907 727.958 483.605 683.27C448.613 520.558 409.581 520.558 406.228 520.902C402.875 521.246 363.843 520.902 328.851 683.356C317.559 728.069 310.96 773.84 309.163 819.923C308.476 884.423 309.679 1451.94 309.679 1451.94C271.077 1451.94 269.615 1533.98 269.615 1533.98V1628.58H543.701V1533.98C543.701 1533.98 542.669 1451.77 503.981 1451.77Z" fill="white"/>
<path d="M467.785 620.92C440.188 528.728 413.708 521.16 407.518 521.16V620.92H467.785Z" fill="#CBD2D7"/>
<path d="M503.98 1451.77H408.291V1628.75H544.216V1534.15C544.216 1534.15 542.669 1451.77 503.98 1451.77Z" fill="#CBD2D7"/>
<path d="M503.98 1424.85C503.98 1311.41 503.98 875.823 503.465 819.751C501.562 773.695 494.906 727.958 483.605 683.269C480.853 670.37 478.016 658.588 475.007 647.666H407.604L408.205 1424.85H503.98Z" fill="#CBD2D7"/>
<path d="M503.98 1451.77H477.07C481.31 1455.06 484.971 1459.05 487.903 1463.55C487.903 1463.55 488.591 1463.55 488.763 1464.32C493.92 1469.43 497.96 1475.55 500.627 1482.3C504.501 1490.12 506.475 1498.76 506.388 1507.49V1628.41H544.044V1533.81C544.044 1533.81 542.669 1451.77 503.98 1451.77Z" fill="#AFB8C0"/>
<path d="M503.465 819.751C501.562 773.695 494.907 727.958 483.605 683.269C480.854 670.37 478.017 658.588 475.008 647.666H456.695L457.383 1424.76H503.981C503.981 1311.41 504.067 875.823 503.465 819.751Z" fill="#AFB8C0"/>
<path d="M407.345 1440.84H406.829H377.77L395.05 1782.26H407.087H407.603H419.639L436.404 1440.84H407.345Z" fill="#AFB8C0"/>
<path d="M467.699 710.789L406.743 683.613V683.441L406.485 683.527L406.141 683.441V683.613L345.272 710.875L335.643 750.091H352.665L360.661 724.463L406.571 719.303L452.309 724.377L460.305 750.005H477.328L467.699 710.789Z" fill="#535A61"/>
<path d="M470.794 631.067H428.323V604.321H406.657H406.141L384.39 604.407V631.153H341.919L340.113 637.947H406.141H406.657L472.685 637.861L470.794 631.067Z" fill="#535A61"/>
<path d="M550.492 437.481H260.846V442.039H550.492V437.481Z" fill="black"/>
<path d="M91.7345 1779.42L91.5625 1781.92H91.9924L92.2503 1779.42H91.7345Z" fill="#FEDB00"/>
<path d="M194.473 1780.03L194.559 1779.25H194.473V1780.03Z" fill="#FEDB00"/>
<path d="M215.022 1779.25H214.248L214.506 1781.83H215.108L215.022 1779.25Z" fill="#FEDB00"/>
<path d="M183.125 1780.03L183.211 1779.34H182.867L183.125 1780.03Z" fill="#FEDB00"/>
<path d="M524.355 1819.33H524.699V1818.3H524.27L524.355 1819.33Z" fill="#FE8730"/>
</svg>
